<mxfile host="app.diagrams.net" modified="2024-01-02T18:27:58.448Z" agent="Mozilla/5.0 (Windows NT 10.0; Win64; x64) AppleWebKit/537.36 (KHTML, like Gecko) Chrome/120.0.0.0 Safari/537.36" etag="1RzvOjXFz1Cxz-YLV99m" version="22.1.16" type="google" pages="12">
  <diagram name="UC1:Schedule Appointment" id="2YBvvXClWsGukQMizWep">
    <mxGraphModel grid="0" page="1" gridSize="10" guides="1" tooltips="1" connect="1" arrows="1" fold="1" pageScale="1" pageWidth="850" pageHeight="1100" math="0" shadow="0">
      <root>
        <mxCell id="0" />
        <mxCell id="1" parent="0" />
        <mxCell id="VD97KfXKwqrtf6IY7ygM-1" value=":Service" style="shape=umlLifeline;perimeter=lifelinePerimeter;whiteSpace=wrap;html=1;container=0;dropTarget=0;collapsible=0;recursiveResize=0;outlineConnect=0;portConstraint=eastwest;newEdgeStyle={&quot;edgeStyle&quot;:&quot;elbowEdgeStyle&quot;,&quot;elbow&quot;:&quot;vertical&quot;,&quot;curved&quot;:0,&quot;rounded&quot;:0};" vertex="1" parent="1">
          <mxGeometry x="334" y="102" width="100" height="370" as="geometry" />
        </mxCell>
        <mxCell id="VD97KfXKwqrtf6IY7ygM-2" value="availableTimes" style="html=1;verticalAlign=bottom;endArrow=open;dashed=1;endSize=8;edgeStyle=elbowEdgeStyle;elbow=vertical;curved=0;rounded=0;" edge="1" parent="1">
          <mxGeometry relative="1" as="geometry">
            <mxPoint x="158" y="232" as="targetPoint" />
            <Array as="points">
              <mxPoint x="304" y="232" />
            </Array>
            <mxPoint x="379" y="232" as="sourcePoint" />
          </mxGeometry>
        </mxCell>
        <mxCell id="VD97KfXKwqrtf6IY7ygM-3" value="UC1: Schedule Appointment&lt;br&gt;Sequence Diagram" style="text;html=1;strokeColor=none;fillColor=none;align=center;verticalAlign=middle;whiteSpace=wrap;rounded=0;fontStyle=1" vertex="1" parent="1">
          <mxGeometry x="335" y="32" width="230" height="30" as="geometry" />
        </mxCell>
        <mxCell id="VD97KfXKwqrtf6IY7ygM-5" value="" style="endArrow=none;dashed=1;html=1;rounded=0;" edge="1" parent="1">
          <mxGeometry width="50" height="50" relative="1" as="geometry">
            <mxPoint x="158" y="472" as="sourcePoint" />
            <mxPoint x="160.51612903225805" y="142" as="targetPoint" />
          </mxGeometry>
        </mxCell>
        <mxCell id="VD97KfXKwqrtf6IY7ygM-6" value="getAvailableTimes()" style="html=1;verticalAlign=bottom;endArrow=block;edgeStyle=elbowEdgeStyle;elbow=vertical;curved=0;rounded=0;" edge="1" parent="1">
          <mxGeometry relative="1" as="geometry">
            <mxPoint x="158" y="202" as="sourcePoint" />
            <Array as="points">
              <mxPoint x="323" y="202" />
            </Array>
            <mxPoint x="378" y="202" as="targetPoint" />
            <mxPoint as="offset" />
          </mxGeometry>
        </mxCell>
        <mxCell id="VD97KfXKwqrtf6IY7ygM-7" value="selectAvailableTime(availableTime)" style="html=1;verticalAlign=bottom;endArrow=block;edgeStyle=elbowEdgeStyle;elbow=vertical;curved=0;rounded=0;" edge="1" parent="1">
          <mxGeometry relative="1" as="geometry">
            <mxPoint x="158" y="262" as="sourcePoint" />
            <Array as="points">
              <mxPoint x="323" y="262" />
            </Array>
            <mxPoint x="383.5" y="262" as="targetPoint" />
            <mxPoint as="offset" />
          </mxGeometry>
        </mxCell>
        <mxCell id="VD97KfXKwqrtf6IY7ygM-8" value="pendingScheduledAppointment" style="html=1;verticalAlign=bottom;endArrow=open;dashed=1;endSize=8;edgeStyle=elbowEdgeStyle;elbow=vertical;curved=0;rounded=0;" edge="1" parent="1" source="1c5OR_Cr3K4XPY9UYxaA-33">
          <mxGeometry relative="1" as="geometry">
            <mxPoint x="158" y="383" as="targetPoint" />
            <Array as="points">
              <mxPoint x="243" y="383" />
            </Array>
            <mxPoint x="318" y="383" as="sourcePoint" />
          </mxGeometry>
        </mxCell>
        <mxCell id="VD97KfXKwqrtf6IY7ygM-9" value="requestMoreInfo()" style="html=1;verticalAlign=bottom;endArrow=block;edgeStyle=elbowEdgeStyle;elbow=vertical;curved=0;rounded=0;" edge="1" parent="1" source="1c5OR_Cr3K4XPY9UYxaA-33">
          <mxGeometry relative="1" as="geometry">
            <mxPoint x="383.5" y="289" as="sourcePoint" />
            <Array as="points">
              <mxPoint x="323" y="289" />
            </Array>
            <mxPoint x="158" y="289" as="targetPoint" />
            <mxPoint as="offset" />
          </mxGeometry>
        </mxCell>
        <mxCell id="VD97KfXKwqrtf6IY7ygM-10" value="enterInfo(info)" style="html=1;verticalAlign=bottom;endArrow=block;edgeStyle=elbowEdgeStyle;elbow=vertical;curved=0;rounded=0;" edge="1" parent="1" target="1c5OR_Cr3K4XPY9UYxaA-33">
          <mxGeometry relative="1" as="geometry">
            <mxPoint x="158" y="319" as="sourcePoint" />
            <Array as="points">
              <mxPoint x="323" y="319" />
            </Array>
            <mxPoint x="384" y="319" as="targetPoint" />
            <mxPoint as="offset" />
          </mxGeometry>
        </mxCell>
        <mxCell id="VD97KfXKwqrtf6IY7ygM-11" value="confirm(info, AvailableTime)" style="html=1;verticalAlign=bottom;endArrow=block;edgeStyle=elbowEdgeStyle;elbow=vertical;curved=0;rounded=0;" edge="1" parent="1" target="1c5OR_Cr3K4XPY9UYxaA-33">
          <mxGeometry relative="1" as="geometry">
            <mxPoint x="158" y="352" as="sourcePoint" />
            <Array as="points">
              <mxPoint x="323" y="352" />
            </Array>
            <mxPoint x="384" y="352" as="targetPoint" />
            <mxPoint as="offset" />
          </mxGeometry>
        </mxCell>
        <mxCell id="VD97KfXKwqrtf6IY7ygM-12" style="edgeStyle=orthogonalEdgeStyle;rounded=0;orthogonalLoop=1;jettySize=auto;html=1;endArrow=none;endFill=0;dashed=1;exitX=0.489;exitY=0.905;exitDx=0;exitDy=0;exitPerimeter=0;" edge="1" parent="1" source="b9wDiveXa2ddHlMj8Skk-3">
          <mxGeometry relative="1" as="geometry">
            <mxPoint x="704" y="472" as="targetPoint" />
            <mxPoint x="704" y="152" as="sourcePoint" />
            <Array as="points" />
          </mxGeometry>
        </mxCell>
        <mxCell id="VD97KfXKwqrtf6IY7ygM-14" value="pendingScheduledAppointment" style="html=1;verticalAlign=bottom;endArrow=open;dashed=1;endSize=8;edgeStyle=elbowEdgeStyle;elbow=vertical;curved=0;rounded=0;" edge="1" parent="1" source="1c5OR_Cr3K4XPY9UYxaA-33">
          <mxGeometry relative="1" as="geometry">
            <mxPoint x="708" y="418" as="targetPoint" />
            <Array as="points">
              <mxPoint x="658" y="418" />
            </Array>
            <mxPoint x="381" y="418" as="sourcePoint" />
          </mxGeometry>
        </mxCell>
        <mxCell id="1c5OR_Cr3K4XPY9UYxaA-33" value=":Scheduling" style="shape=umlLifeline;perimeter=lifelinePerimeter;whiteSpace=wrap;html=1;container=0;dropTarget=0;collapsible=0;recursiveResize=0;outlineConnect=0;portConstraint=eastwest;newEdgeStyle={&quot;edgeStyle&quot;:&quot;elbowEdgeStyle&quot;,&quot;elbow&quot;:&quot;vertical&quot;,&quot;curved&quot;:0,&quot;rounded&quot;:0};" vertex="1" parent="1">
          <mxGeometry x="488" y="102" width="100" height="370" as="geometry" />
        </mxCell>
        <mxCell id="b9wDiveXa2ddHlMj8Skk-2" value=":Service Requester" style="rounded=0;whiteSpace=wrap;html=1;" vertex="1" parent="1">
          <mxGeometry x="120" y="102" width="90" height="42" as="geometry" />
        </mxCell>
        <mxCell id="b9wDiveXa2ddHlMj8Skk-3" value=":Service Provider" style="rounded=0;whiteSpace=wrap;html=1;" vertex="1" parent="1">
          <mxGeometry x="660" y="102" width="90" height="42" as="geometry" />
        </mxCell>
      </root>
    </mxGraphModel>
  </diagram>
  <diagram id="UDp3BbspxIbq5vuASOOv" name="UC2:Search Service">
    <mxGraphModel grid="0" page="1" gridSize="10" guides="1" tooltips="1" connect="1" arrows="1" fold="1" pageScale="1" pageWidth="1100" pageHeight="850" math="0" shadow="0">
      <root>
        <mxCell id="0" />
        <mxCell id="1" parent="0" />
        <mxCell id="OrfmIsBlfXUg0-121HTW-1" value=":Service" style="shape=umlLifeline;perimeter=lifelinePerimeter;whiteSpace=wrap;html=1;container=0;dropTarget=0;collapsible=0;recursiveResize=0;outlineConnect=0;portConstraint=eastwest;newEdgeStyle={&quot;edgeStyle&quot;:&quot;elbowEdgeStyle&quot;,&quot;elbow&quot;:&quot;vertical&quot;,&quot;curved&quot;:0,&quot;rounded&quot;:0};" vertex="1" parent="1">
          <mxGeometry x="550" y="110" width="100" height="260" as="geometry" />
        </mxCell>
        <mxCell id="OrfmIsBlfXUg0-121HTW-2" value="filteredService" style="html=1;verticalAlign=bottom;endArrow=open;dashed=1;endSize=8;edgeStyle=elbowEdgeStyle;elbow=vertical;curved=0;rounded=0;" edge="1" parent="1">
          <mxGeometry relative="1" as="geometry">
            <mxPoint x="373" y="254" as="targetPoint" />
            <Array as="points">
              <mxPoint x="519" y="254" />
            </Array>
            <mxPoint x="594" y="254" as="sourcePoint" />
          </mxGeometry>
        </mxCell>
        <mxCell id="OrfmIsBlfXUg0-121HTW-3" value="UC2: Search Service&lt;br&gt;Sequence Diagram" style="text;html=1;strokeColor=none;fillColor=none;align=center;verticalAlign=middle;whiteSpace=wrap;rounded=0;fontStyle=1" vertex="1" parent="1">
          <mxGeometry x="374" y="40" width="230" height="30" as="geometry" />
        </mxCell>
        <mxCell id="OrfmIsBlfXUg0-121HTW-6" value="selectFilter(filters, service)" style="html=1;verticalAlign=bottom;endArrow=block;edgeStyle=elbowEdgeStyle;elbow=vertical;curved=0;rounded=0;" edge="1" parent="1">
          <mxGeometry relative="1" as="geometry">
            <mxPoint x="373" y="224" as="sourcePoint" />
            <Array as="points">
              <mxPoint x="538" y="224" />
            </Array>
            <mxPoint x="593" y="224" as="targetPoint" />
            <mxPoint as="offset" />
          </mxGeometry>
        </mxCell>
        <mxCell id="OrfmIsBlfXUg0-121HTW-7" value="selectService(Service)" style="html=1;verticalAlign=bottom;endArrow=block;edgeStyle=elbowEdgeStyle;elbow=vertical;curved=0;rounded=0;" edge="1" parent="1">
          <mxGeometry relative="1" as="geometry">
            <mxPoint x="374" y="307" as="sourcePoint" />
            <Array as="points">
              <mxPoint x="539" y="307" />
            </Array>
            <mxPoint x="599.5" y="307" as="targetPoint" />
            <mxPoint as="offset" />
          </mxGeometry>
        </mxCell>
        <mxCell id="OrfmIsBlfXUg0-121HTW-8" value="serviceDetails" style="html=1;verticalAlign=bottom;endArrow=open;dashed=1;endSize=8;edgeStyle=elbowEdgeStyle;elbow=vertical;curved=0;rounded=0;" edge="1" parent="1">
          <mxGeometry relative="1" as="geometry">
            <mxPoint x="374" y="330" as="targetPoint" />
            <Array as="points">
              <mxPoint x="459" y="330" />
            </Array>
            <mxPoint x="599.5" y="330" as="sourcePoint" />
          </mxGeometry>
        </mxCell>
        <mxCell id="OrfmIsBlfXUg0-121HTW-13" value="loop" style="shape=umlFrame;whiteSpace=wrap;html=1;pointerEvents=0;" vertex="1" parent="1">
          <mxGeometry x="280" y="180" width="370" height="94" as="geometry" />
        </mxCell>
        <mxCell id="OrfmIsBlfXUg0-121HTW-15" value="[more filters]" style="text;html=1;align=center;verticalAlign=middle;resizable=0;points=[];autosize=1;strokeColor=none;fillColor=none;" vertex="1" parent="1">
          <mxGeometry x="336" y="180" width="90" height="30" as="geometry" />
        </mxCell>
        <mxCell id="mx2zQQaMQeCBqZ45jfyO-1" value=":User" style="shape=umlLifeline;perimeter=lifelinePerimeter;whiteSpace=wrap;html=1;container=0;dropTarget=0;collapsible=0;recursiveResize=0;outlineConnect=0;portConstraint=eastwest;newEdgeStyle={&quot;edgeStyle&quot;:&quot;elbowEdgeStyle&quot;,&quot;elbow&quot;:&quot;vertical&quot;,&quot;curved&quot;:0,&quot;rounded&quot;:0};" vertex="1" parent="1">
          <mxGeometry x="320" y="110" width="100" height="260" as="geometry" />
        </mxCell>
      </root>
    </mxGraphModel>
  </diagram>
  <diagram id="zXxCPmzazz-ZNmYcPLw1" name="UC3">
    <mxGraphModel dx="880" dy="460" grid="1" gridSize="10" guides="1" tooltips="1" connect="1" arrows="1" fold="1" page="1" pageScale="1" pageWidth="1100" pageHeight="850" math="0" shadow="0">
      <root>
        <mxCell id="0" />
        <mxCell id="1" parent="0" />
        <mxCell id="f5UC6HviHsqxEgAHXxGB-1" value=":System" style="shape=umlLifeline;perimeter=lifelinePerimeter;whiteSpace=wrap;html=1;container=0;dropTarget=0;collapsible=0;recursiveResize=0;outlineConnect=0;portConstraint=eastwest;newEdgeStyle={&quot;edgeStyle&quot;:&quot;elbowEdgeStyle&quot;,&quot;elbow&quot;:&quot;vertical&quot;,&quot;curved&quot;:0,&quot;rounded&quot;:0};" parent="1" vertex="1">
          <mxGeometry x="479" y="100" width="100" height="480" as="geometry" />
        </mxCell>
        <mxCell id="f5UC6HviHsqxEgAHXxGB-2" value="serviceDetails" style="html=1;verticalAlign=bottom;endArrow=open;dashed=1;endSize=8;edgeStyle=elbowEdgeStyle;elbow=vertical;curved=0;rounded=0;" parent="1" edge="1">
          <mxGeometry relative="1" as="geometry">
            <mxPoint x="302" y="244" as="targetPoint" />
            <Array as="points">
              <mxPoint x="448" y="244" />
            </Array>
            <mxPoint x="523" y="244" as="sourcePoint" />
          </mxGeometry>
        </mxCell>
        <mxCell id="f5UC6HviHsqxEgAHXxGB-3" value="UC3: Make Payment&lt;br&gt;Sequence Diagram" style="text;html=1;strokeColor=none;fillColor=none;align=center;verticalAlign=middle;whiteSpace=wrap;rounded=0;fontStyle=1" parent="1" vertex="1">
          <mxGeometry x="400" y="30" width="230" height="30" as="geometry" />
        </mxCell>
        <mxCell id="f5UC6HviHsqxEgAHXxGB-4" style="rounded=0;orthogonalLoop=1;jettySize=auto;html=1;exitX=0.5;exitY=0.5;exitDx=0;exitDy=0;exitPerimeter=0;endArrow=none;endFill=0;dashed=1;" parent="1" source="f5UC6HviHsqxEgAHXxGB-5" edge="1">
          <mxGeometry relative="1" as="geometry">
            <mxPoint x="300" y="580" as="targetPoint" />
          </mxGeometry>
        </mxCell>
        <mxCell id="f5UC6HviHsqxEgAHXxGB-5" value="Service Requester" style="shape=umlActor;verticalLabelPosition=bottom;verticalAlign=top;html=1;outlineConnect=0;" parent="1" vertex="1">
          <mxGeometry x="290" y="80" width="30" height="60" as="geometry" />
        </mxCell>
        <mxCell id="f5UC6HviHsqxEgAHXxGB-6" value="selectService()" style="html=1;verticalAlign=bottom;endArrow=block;edgeStyle=elbowEdgeStyle;elbow=vertical;curved=0;rounded=0;" parent="1" target="f5UC6HviHsqxEgAHXxGB-1" edge="1">
          <mxGeometry relative="1" as="geometry">
            <mxPoint x="302" y="214" as="sourcePoint" />
            <Array as="points">
              <mxPoint x="467" y="214" />
            </Array>
            <mxPoint x="522" y="214" as="targetPoint" />
            <mxPoint as="offset" />
          </mxGeometry>
        </mxCell>
        <mxCell id="f5UC6HviHsqxEgAHXxGB-7" value="makePayment(serviceDetails)" style="html=1;verticalAlign=bottom;endArrow=block;edgeStyle=elbowEdgeStyle;elbow=vertical;curved=0;rounded=0;" parent="1" edge="1">
          <mxGeometry relative="1" as="geometry">
            <mxPoint x="303" y="279" as="sourcePoint" />
            <Array as="points">
              <mxPoint x="468" y="279" />
            </Array>
            <mxPoint x="528.5" y="279" as="targetPoint" />
            <mxPoint as="offset" />
          </mxGeometry>
        </mxCell>
        <mxCell id="f5UC6HviHsqxEgAHXxGB-8" value="outstandingServiceFee" style="html=1;verticalAlign=bottom;endArrow=open;dashed=1;endSize=8;edgeStyle=elbowEdgeStyle;elbow=vertical;curved=0;rounded=0;" parent="1" edge="1">
          <mxGeometry relative="1" as="geometry">
            <mxPoint x="303" y="314" as="targetPoint" />
            <Array as="points">
              <mxPoint x="388" y="314" />
            </Array>
            <mxPoint x="528.5" y="314" as="sourcePoint" />
          </mxGeometry>
        </mxCell>
        <mxCell id="f5UC6HviHsqxEgAHXxGB-9" value="enter(paymentMethod)" style="html=1;verticalAlign=bottom;endArrow=block;edgeStyle=elbowEdgeStyle;elbow=vertical;curved=0;rounded=0;" parent="1" edge="1">
          <mxGeometry relative="1" as="geometry">
            <mxPoint x="305.25" y="350" as="sourcePoint" />
            <Array as="points">
              <mxPoint x="470.25" y="350" />
            </Array>
            <mxPoint x="530.75" y="350" as="targetPoint" />
            <mxPoint as="offset" />
          </mxGeometry>
        </mxCell>
        <mxCell id="f5UC6HviHsqxEgAHXxGB-10" value="confirmPaymentMethod(paymentMethod)" style="html=1;verticalAlign=bottom;endArrow=block;edgeStyle=elbowEdgeStyle;elbow=vertical;curved=0;rounded=0;" parent="1" edge="1">
          <mxGeometry relative="1" as="geometry">
            <mxPoint x="303" y="417" as="sourcePoint" />
            <Array as="points">
              <mxPoint x="468" y="417" />
            </Array>
            <mxPoint x="528.5" y="417" as="targetPoint" />
            <mxPoint as="offset" />
          </mxGeometry>
        </mxCell>
        <mxCell id="f5UC6HviHsqxEgAHXxGB-11" value="paymentMethod" style="html=1;verticalAlign=bottom;endArrow=open;dashed=1;endSize=8;edgeStyle=elbowEdgeStyle;elbow=vertical;curved=0;rounded=0;" parent="1" edge="1">
          <mxGeometry relative="1" as="geometry">
            <mxPoint x="303" y="384" as="targetPoint" />
            <Array as="points">
              <mxPoint x="388" y="384" />
            </Array>
            <mxPoint x="528.5" y="384" as="sourcePoint" />
          </mxGeometry>
        </mxCell>
        <mxCell id="f5UC6HviHsqxEgAHXxGB-12" value="paymentConfirmation" style="html=1;verticalAlign=bottom;endArrow=open;endSize=8;edgeStyle=elbowEdgeStyle;elbow=vertical;curved=0;rounded=0;" parent="1" edge="1">
          <mxGeometry relative="1" as="geometry">
            <mxPoint x="301" y="483" as="targetPoint" />
            <Array as="points">
              <mxPoint x="386" y="483" />
            </Array>
            <mxPoint x="526.5" y="483" as="sourcePoint" />
          </mxGeometry>
        </mxCell>
        <mxCell id="f5UC6HviHsqxEgAHXxGB-13" style="rounded=0;orthogonalLoop=1;jettySize=auto;html=1;endArrow=none;endFill=0;dashed=1;" parent="1" source="f5UC6HviHsqxEgAHXxGB-14" edge="1">
          <mxGeometry relative="1" as="geometry">
            <mxPoint x="100" y="580" as="targetPoint" />
          </mxGeometry>
        </mxCell>
        <mxCell id="f5UC6HviHsqxEgAHXxGB-14" value="Service Provider" style="shape=umlActor;verticalLabelPosition=bottom;verticalAlign=top;html=1;outlineConnect=0;" parent="1" vertex="1">
          <mxGeometry x="90" y="80" width="30" height="60" as="geometry" />
        </mxCell>
        <mxCell id="f5UC6HviHsqxEgAHXxGB-15" value="paymentConfirmation" style="html=1;verticalAlign=bottom;endArrow=open;endSize=8;elbow=vertical;rounded=0;" parent="1" edge="1">
          <mxGeometry relative="1" as="geometry">
            <mxPoint x="100" y="515" as="targetPoint" />
            <mxPoint x="528.5" y="515" as="sourcePoint" />
          </mxGeometry>
        </mxCell>
        <mxCell id="LZlgHJeT3rHF690PbnWv-2" value="processPayment()" style="html=1;verticalAlign=bottom;endArrow=block;edgeStyle=elbowEdgeStyle;elbow=vertical;curved=0;rounded=0;" parent="1" edge="1">
          <mxGeometry relative="1" as="geometry">
            <mxPoint x="530" y="440" as="sourcePoint" />
            <Array as="points">
              <mxPoint x="695" y="440" />
            </Array>
            <mxPoint x="700" y="440" as="targetPoint" />
            <mxPoint as="offset" />
          </mxGeometry>
        </mxCell>
        <mxCell id="LZlgHJeT3rHF690PbnWv-3" style="rounded=0;orthogonalLoop=1;jettySize=auto;html=1;endArrow=none;endFill=0;dashed=1;" parent="1" source="LZlgHJeT3rHF690PbnWv-4" edge="1">
          <mxGeometry relative="1" as="geometry">
            <mxPoint x="700" y="590" as="targetPoint" />
          </mxGeometry>
        </mxCell>
        <mxCell id="LZlgHJeT3rHF690PbnWv-4" value="Payment Authorization" style="shape=umlActor;verticalLabelPosition=bottom;verticalAlign=top;html=1;outlineConnect=0;" parent="1" vertex="1">
          <mxGeometry x="690" y="80" width="30" height="60" as="geometry" />
        </mxCell>
        <mxCell id="55hK_YdWOsxN5g6Wobln-2" value="authorizesPayment()" style="html=1;verticalAlign=bottom;endArrow=block;elbow=vertical;rounded=0;dashed=1;" parent="1" edge="1">
          <mxGeometry relative="1" as="geometry">
            <mxPoint x="700" y="465" as="sourcePoint" />
            <mxPoint x="528.5" y="465" as="targetPoint" />
            <mxPoint as="offset" />
          </mxGeometry>
        </mxCell>
      </root>
    </mxGraphModel>
  </diagram>
  <diagram id="nQsuidqeMxyjM-KwLWY1" name="UC4">
    <mxGraphModel dx="880" dy="460" grid="1" gridSize="10" guides="1" tooltips="1" connect="1" arrows="1" fold="1" page="1" pageScale="1" pageWidth="1100" pageHeight="850" math="0" shadow="0">
      <root>
        <mxCell id="0" />
        <mxCell id="1" parent="0" />
        <mxCell id="63FkkP3xpUlLaOeBa9vB-1" value=":System" style="shape=umlLifeline;perimeter=lifelinePerimeter;whiteSpace=wrap;html=1;container=0;dropTarget=0;collapsible=0;recursiveResize=0;outlineConnect=0;portConstraint=eastwest;newEdgeStyle={&quot;edgeStyle&quot;:&quot;elbowEdgeStyle&quot;,&quot;elbow&quot;:&quot;vertical&quot;,&quot;curved&quot;:0,&quot;rounded&quot;:0};" parent="1" vertex="1">
          <mxGeometry x="499" y="120" width="100" height="300" as="geometry" />
        </mxCell>
        <mxCell id="63FkkP3xpUlLaOeBa9vB-2" value="proposalDetails" style="html=1;verticalAlign=bottom;endArrow=open;dashed=1;endSize=8;edgeStyle=elbowEdgeStyle;elbow=vertical;curved=0;rounded=0;" parent="1" edge="1">
          <mxGeometry x="-0.0019" relative="1" as="geometry">
            <mxPoint x="322" y="264" as="targetPoint" />
            <Array as="points">
              <mxPoint x="468" y="264" />
            </Array>
            <mxPoint x="543" y="264" as="sourcePoint" />
            <mxPoint as="offset" />
          </mxGeometry>
        </mxCell>
        <mxCell id="63FkkP3xpUlLaOeBa9vB-3" value="UC4: Manage Proposal&lt;br&gt;Sequence Diagram" style="text;html=1;strokeColor=none;fillColor=none;align=center;verticalAlign=middle;whiteSpace=wrap;rounded=0;fontStyle=1" parent="1" vertex="1">
          <mxGeometry x="434" y="40" width="230" height="30" as="geometry" />
        </mxCell>
        <mxCell id="63FkkP3xpUlLaOeBa9vB-4" style="edgeStyle=orthogonalEdgeStyle;rounded=0;orthogonalLoop=1;jettySize=auto;html=1;exitX=0.5;exitY=0.5;exitDx=0;exitDy=0;exitPerimeter=0;endArrow=none;endFill=0;dashed=1;" parent="1" source="63FkkP3xpUlLaOeBa9vB-5" edge="1">
          <mxGeometry relative="1" as="geometry">
            <mxPoint x="325" y="420" as="targetPoint" />
          </mxGeometry>
        </mxCell>
        <mxCell id="63FkkP3xpUlLaOeBa9vB-5" value="Service Provider" style="shape=umlActor;verticalLabelPosition=bottom;verticalAlign=top;html=1;outlineConnect=0;" parent="1" vertex="1">
          <mxGeometry x="310" y="100" width="30" height="60" as="geometry" />
        </mxCell>
        <mxCell id="63FkkP3xpUlLaOeBa9vB-6" value="selectProposal()" style="html=1;verticalAlign=bottom;endArrow=block;edgeStyle=elbowEdgeStyle;elbow=vertical;curved=0;rounded=0;" parent="1" target="63FkkP3xpUlLaOeBa9vB-1" edge="1">
          <mxGeometry relative="1" as="geometry">
            <mxPoint x="322" y="234" as="sourcePoint" />
            <Array as="points">
              <mxPoint x="487" y="234" />
            </Array>
            <mxPoint x="542" y="234" as="targetPoint" />
            <mxPoint as="offset" />
          </mxGeometry>
        </mxCell>
        <mxCell id="63FkkP3xpUlLaOeBa9vB-7" value="acceptProposal(proposalDetails)" style="html=1;verticalAlign=bottom;endArrow=block;edgeStyle=elbowEdgeStyle;elbow=vertical;curved=0;rounded=0;" parent="1" edge="1">
          <mxGeometry relative="1" as="geometry">
            <mxPoint x="323" y="299" as="sourcePoint" />
            <Array as="points">
              <mxPoint x="488" y="299" />
            </Array>
            <mxPoint x="548.5" y="299" as="targetPoint" />
            <mxPoint as="offset" />
          </mxGeometry>
        </mxCell>
        <mxCell id="63FkkP3xpUlLaOeBa9vB-8" value="proposalConfirmationMessage" style="html=1;verticalAlign=bottom;endArrow=open;dashed=1;endSize=8;edgeStyle=elbowEdgeStyle;elbow=vertical;curved=0;rounded=0;" parent="1" edge="1">
          <mxGeometry relative="1" as="geometry">
            <mxPoint x="323" y="334" as="targetPoint" />
            <Array as="points">
              <mxPoint x="408" y="334" />
            </Array>
            <mxPoint x="548.5" y="334" as="sourcePoint" />
          </mxGeometry>
        </mxCell>
        <mxCell id="63FkkP3xpUlLaOeBa9vB-9" value="approvedScheduledAppointment" style="html=1;verticalAlign=bottom;endArrow=open;dashed=1;endSize=8;edgeStyle=elbowEdgeStyle;elbow=vertical;curved=0;rounded=0;" parent="1" edge="1">
          <mxGeometry relative="1" as="geometry">
            <mxPoint x="323" y="372" as="targetPoint" />
            <Array as="points">
              <mxPoint x="408" y="372" />
            </Array>
            <mxPoint x="548.5" y="372" as="sourcePoint" />
          </mxGeometry>
        </mxCell>
        <mxCell id="63FkkP3xpUlLaOeBa9vB-10" style="edgeStyle=orthogonalEdgeStyle;rounded=0;orthogonalLoop=1;jettySize=auto;html=1;endArrow=none;endFill=0;dashed=1;" parent="1" source="63FkkP3xpUlLaOeBa9vB-11" edge="1">
          <mxGeometry relative="1" as="geometry">
            <mxPoint x="744" y="420" as="targetPoint" />
          </mxGeometry>
        </mxCell>
        <mxCell id="63FkkP3xpUlLaOeBa9vB-11" value="Service Requester" style="shape=umlActor;verticalLabelPosition=bottom;verticalAlign=top;html=1;outlineConnect=0;" parent="1" vertex="1">
          <mxGeometry x="729" y="97" width="30" height="60" as="geometry" />
        </mxCell>
        <mxCell id="63FkkP3xpUlLaOeBa9vB-12" value="approvedScheduledAppointment" style="html=1;verticalAlign=bottom;endArrow=open;dashed=1;endSize=8;edgeStyle=elbowEdgeStyle;elbow=vertical;curved=0;rounded=0;" parent="1" source="63FkkP3xpUlLaOeBa9vB-1" edge="1">
          <mxGeometry relative="1" as="geometry">
            <mxPoint x="739" y="390" as="targetPoint" />
            <Array as="points">
              <mxPoint x="638" y="390" />
            </Array>
            <mxPoint x="778.5" y="390" as="sourcePoint" />
          </mxGeometry>
        </mxCell>
      </root>
    </mxGraphModel>
  </diagram>
  <diagram id="007-iKzaVh_9mEb1vbak" name="UC5:Manage User Account">
    <mxGraphModel grid="0" page="1" gridSize="10" guides="1" tooltips="1" connect="1" arrows="1" fold="1" pageScale="1" pageWidth="1100" pageHeight="850" math="0" shadow="0">
      <root>
        <mxCell id="0" />
        <mxCell id="1" parent="0" />
        <mxCell id="ELcieAcHmVOnHYZB6zAg-1" value=":Profile" style="shape=umlLifeline;perimeter=lifelinePerimeter;whiteSpace=wrap;html=1;container=0;dropTarget=0;collapsible=0;recursiveResize=0;outlineConnect=0;portConstraint=eastwest;newEdgeStyle={&quot;edgeStyle&quot;:&quot;elbowEdgeStyle&quot;,&quot;elbow&quot;:&quot;vertical&quot;,&quot;curved&quot;:0,&quot;rounded&quot;:0};" vertex="1" parent="1">
          <mxGeometry x="629" y="120" width="100" height="370" as="geometry" />
        </mxCell>
        <mxCell id="ELcieAcHmVOnHYZB6zAg-3" value="UC5: Manage User Account&lt;br&gt;Sequence Diagram" style="text;html=1;strokeColor=none;fillColor=none;align=center;verticalAlign=middle;whiteSpace=wrap;rounded=0;fontStyle=1" vertex="1" parent="1">
          <mxGeometry x="409" y="40" width="230" height="30" as="geometry" />
        </mxCell>
        <mxCell id="ELcieAcHmVOnHYZB6zAg-6" value="selectCreateAccount()" style="html=1;verticalAlign=bottom;endArrow=block;edgeStyle=elbowEdgeStyle;elbow=vertical;curved=0;rounded=0;" edge="1" parent="1" target="ELcieAcHmVOnHYZB6zAg-1">
          <mxGeometry x="-0.0013" relative="1" as="geometry">
            <mxPoint x="342" y="224" as="sourcePoint" />
            <Array as="points">
              <mxPoint x="507" y="224" />
            </Array>
            <mxPoint x="562" y="224" as="targetPoint" />
            <mxPoint as="offset" />
          </mxGeometry>
        </mxCell>
        <mxCell id="ELcieAcHmVOnHYZB6zAg-7" value="enterAccountInfo(name, phone, email, username, password)" style="html=1;verticalAlign=bottom;endArrow=block;edgeStyle=elbowEdgeStyle;elbow=vertical;curved=0;rounded=0;" edge="1" parent="1" target="ELcieAcHmVOnHYZB6zAg-1">
          <mxGeometry relative="1" as="geometry">
            <mxPoint x="343" y="258" as="sourcePoint" />
            <Array as="points">
              <mxPoint x="508" y="258" />
            </Array>
            <mxPoint x="568.5" y="258" as="targetPoint" />
            <mxPoint as="offset" />
          </mxGeometry>
        </mxCell>
        <mxCell id="ELcieAcHmVOnHYZB6zAg-8" value="name, phone, email, username, password" style="html=1;verticalAlign=bottom;endArrow=open;dashed=1;endSize=8;edgeStyle=elbowEdgeStyle;elbow=vertical;curved=0;rounded=0;" edge="1" parent="1" source="ELcieAcHmVOnHYZB6zAg-1">
          <mxGeometry relative="1" as="geometry">
            <mxPoint x="343" y="295" as="targetPoint" />
            <Array as="points">
              <mxPoint x="428" y="295" />
            </Array>
            <mxPoint x="568.5" y="295" as="sourcePoint" />
          </mxGeometry>
        </mxCell>
        <mxCell id="ELcieAcHmVOnHYZB6zAg-10" value="confirmAccountInfo(name, phone, email, username, password)" style="html=1;verticalAlign=bottom;endArrow=block;edgeStyle=elbowEdgeStyle;elbow=vertical;curved=0;rounded=0;" edge="1" parent="1">
          <mxGeometry x="-0.0013" relative="1" as="geometry">
            <mxPoint x="343" y="330" as="sourcePoint" />
            <Array as="points">
              <mxPoint x="508" y="330" />
            </Array>
            <mxPoint x="680" y="330" as="targetPoint" />
            <mxPoint as="offset" />
          </mxGeometry>
        </mxCell>
        <mxCell id="ELcieAcHmVOnHYZB6zAg-11" value="submitAccountInfo(name, phone, email, username, password)" style="html=1;verticalAlign=bottom;endArrow=block;edgeStyle=elbowEdgeStyle;elbow=vertical;curved=0;rounded=0;" edge="1" parent="1">
          <mxGeometry x="-0.0013" relative="1" as="geometry">
            <mxPoint x="349" y="367" as="sourcePoint" />
            <Array as="points">
              <mxPoint x="514" y="367" />
            </Array>
            <mxPoint x="686" y="367" as="targetPoint" />
            <mxPoint as="offset" />
          </mxGeometry>
        </mxCell>
        <mxCell id="ELcieAcHmVOnHYZB6zAg-12" value="accountVerification" style="html=1;verticalAlign=bottom;endArrow=open;dashed=1;endSize=8;edgeStyle=elbowEdgeStyle;elbow=vertical;curved=0;rounded=0;" edge="1" parent="1">
          <mxGeometry relative="1" as="geometry">
            <mxPoint x="343" y="400" as="targetPoint" />
            <Array as="points">
              <mxPoint x="428" y="400" />
            </Array>
            <mxPoint x="679" y="400" as="sourcePoint" />
          </mxGeometry>
        </mxCell>
        <mxCell id="ELcieAcHmVOnHYZB6zAg-14" value="verifyAccount(username, password, accountVerification)" style="html=1;verticalAlign=bottom;endArrow=block;edgeStyle=elbowEdgeStyle;elbow=vertical;curved=0;rounded=0;" edge="1" parent="1">
          <mxGeometry x="-0.0013" relative="1" as="geometry">
            <mxPoint x="345" y="434" as="sourcePoint" />
            <Array as="points">
              <mxPoint x="510" y="434" />
            </Array>
            <mxPoint x="682" y="434" as="targetPoint" />
            <mxPoint as="offset" />
          </mxGeometry>
        </mxCell>
        <mxCell id="G6eCYbnKXAWjRxLUIEVP-1" value=":User" style="shape=umlLifeline;perimeter=lifelinePerimeter;whiteSpace=wrap;html=1;container=0;dropTarget=0;collapsible=0;recursiveResize=0;outlineConnect=0;portConstraint=eastwest;newEdgeStyle={&quot;edgeStyle&quot;:&quot;elbowEdgeStyle&quot;,&quot;elbow&quot;:&quot;vertical&quot;,&quot;curved&quot;:0,&quot;rounded&quot;:0};" vertex="1" parent="1">
          <mxGeometry x="290" y="120" width="100" height="370" as="geometry" />
        </mxCell>
      </root>
    </mxGraphModel>
  </diagram>
  <diagram id="oGVVL0DK5psTNWt06rkA" name="UC6">
    <mxGraphModel dx="880" dy="460" grid="1" gridSize="10" guides="1" tooltips="1" connect="1" arrows="1" fold="1" page="1" pageScale="1" pageWidth="1100" pageHeight="850" math="0" shadow="0">
      <root>
        <mxCell id="0" />
        <mxCell id="1" parent="0" />
        <mxCell id="N6DR42Tn4r_PemkbRtlR-1" value=":System" style="shape=umlLifeline;perimeter=lifelinePerimeter;whiteSpace=wrap;html=1;container=0;dropTarget=0;collapsible=0;recursiveResize=0;outlineConnect=0;portConstraint=eastwest;newEdgeStyle={&quot;edgeStyle&quot;:&quot;elbowEdgeStyle&quot;,&quot;elbow&quot;:&quot;vertical&quot;,&quot;curved&quot;:0,&quot;rounded&quot;:0};" parent="1" vertex="1">
          <mxGeometry x="400" y="110" width="100" height="370" as="geometry" />
        </mxCell>
        <mxCell id="N6DR42Tn4r_PemkbRtlR-2" value="UC6: Ask Help&lt;br&gt;Sequence Diagram" style="text;html=1;strokeColor=none;fillColor=none;align=center;verticalAlign=middle;whiteSpace=wrap;rounded=0;fontStyle=1" parent="1" vertex="1">
          <mxGeometry x="180" y="30" width="230" height="30" as="geometry" />
        </mxCell>
        <mxCell id="N6DR42Tn4r_PemkbRtlR-3" style="edgeStyle=orthogonalEdgeStyle;rounded=0;orthogonalLoop=1;jettySize=auto;html=1;exitX=0.5;exitY=0.5;exitDx=0;exitDy=0;exitPerimeter=0;endArrow=none;endFill=0;dashed=1;" parent="1" source="N6DR42Tn4r_PemkbRtlR-4" edge="1">
          <mxGeometry relative="1" as="geometry">
            <mxPoint x="116" y="480" as="targetPoint" />
          </mxGeometry>
        </mxCell>
        <mxCell id="N6DR42Tn4r_PemkbRtlR-4" value="User" style="shape=umlActor;verticalLabelPosition=bottom;verticalAlign=top;html=1;outlineConnect=0;" parent="1" vertex="1">
          <mxGeometry x="101" y="80" width="30" height="60" as="geometry" />
        </mxCell>
        <mxCell id="N6DR42Tn4r_PemkbRtlR-5" value="selectChat()" style="html=1;verticalAlign=bottom;endArrow=block;edgeStyle=elbowEdgeStyle;elbow=vertical;curved=0;rounded=0;" parent="1" target="N6DR42Tn4r_PemkbRtlR-1" edge="1">
          <mxGeometry x="-0.0013" relative="1" as="geometry">
            <mxPoint x="113" y="214" as="sourcePoint" />
            <Array as="points">
              <mxPoint x="278" y="214" />
            </Array>
            <mxPoint x="333" y="214" as="targetPoint" />
            <mxPoint as="offset" />
          </mxGeometry>
        </mxCell>
        <mxCell id="N6DR42Tn4r_PemkbRtlR-6" value="startChatSession(question, keywords)" style="html=1;verticalAlign=bottom;endArrow=block;edgeStyle=elbowEdgeStyle;elbow=vertical;curved=0;rounded=0;" parent="1" target="N6DR42Tn4r_PemkbRtlR-1" edge="1">
          <mxGeometry relative="1" as="geometry">
            <mxPoint x="114" y="248" as="sourcePoint" />
            <Array as="points">
              <mxPoint x="279" y="248" />
            </Array>
            <mxPoint x="339.5" y="248" as="targetPoint" />
            <mxPoint as="offset" />
          </mxGeometry>
        </mxCell>
        <mxCell id="N6DR42Tn4r_PemkbRtlR-7" value="chatQuestionResponses" style="html=1;verticalAlign=bottom;endArrow=open;dashed=1;endSize=8;edgeStyle=elbowEdgeStyle;elbow=vertical;curved=0;rounded=0;" parent="1" source="N6DR42Tn4r_PemkbRtlR-1" edge="1">
          <mxGeometry relative="1" as="geometry">
            <mxPoint x="114" y="285" as="targetPoint" />
            <Array as="points">
              <mxPoint x="199" y="285" />
            </Array>
            <mxPoint x="339.5" y="285" as="sourcePoint" />
          </mxGeometry>
        </mxCell>
        <mxCell id="N6DR42Tn4r_PemkbRtlR-8" value="endChatSession(email)" style="html=1;verticalAlign=bottom;endArrow=block;edgeStyle=elbowEdgeStyle;elbow=vertical;curved=0;rounded=0;" parent="1" edge="1">
          <mxGeometry x="-0.0013" relative="1" as="geometry">
            <mxPoint x="114" y="320" as="sourcePoint" />
            <Array as="points">
              <mxPoint x="279" y="320" />
            </Array>
            <mxPoint x="451" y="320" as="targetPoint" />
            <mxPoint as="offset" />
          </mxGeometry>
        </mxCell>
        <mxCell id="-YRhCmRxPDpe9eI_AhBR-2" value="endChatConfirmationMessage, chatTranscript" style="html=1;verticalAlign=bottom;endArrow=open;dashed=1;endSize=8;edgeStyle=elbowEdgeStyle;elbow=vertical;curved=0;rounded=0;" parent="1" edge="1">
          <mxGeometry relative="1" as="geometry">
            <mxPoint x="116" y="354" as="targetPoint" />
            <Array as="points">
              <mxPoint x="201" y="354" />
            </Array>
            <mxPoint x="452" y="354" as="sourcePoint" />
          </mxGeometry>
        </mxCell>
        <mxCell id="XjIHXtYM7wWY-ccjORET-1" value="loop" style="shape=umlFrame;whiteSpace=wrap;html=1;pointerEvents=0;" parent="1" vertex="1">
          <mxGeometry x="40" y="180" width="460" height="120" as="geometry" />
        </mxCell>
        <mxCell id="UFB3H0ouONDPn8uTgKro-1" value="[questions, keywords]" style="text;html=1;align=center;verticalAlign=middle;resizable=0;points=[];autosize=1;strokeColor=none;fillColor=none;" parent="1" vertex="1">
          <mxGeometry x="92" y="180" width="140" height="30" as="geometry" />
        </mxCell>
      </root>
    </mxGraphModel>
  </diagram>
  <diagram id="9gBLKTYXunG6H1uA21Sh" name="UC7">
    <mxGraphModel grid="1" page="1" gridSize="10" guides="1" tooltips="1" connect="1" arrows="1" fold="1" pageScale="1" pageWidth="1100" pageHeight="850" math="0" shadow="0">
      <root>
        <mxCell id="0" />
        <mxCell id="1" parent="0" />
        <mxCell id="kxStrU6a_xl0YsKGEl4B-1" value=":System" style="shape=umlLifeline;perimeter=lifelinePerimeter;whiteSpace=wrap;html=1;container=0;dropTarget=0;collapsible=0;recursiveResize=0;outlineConnect=0;portConstraint=eastwest;newEdgeStyle={&quot;edgeStyle&quot;:&quot;elbowEdgeStyle&quot;,&quot;elbow&quot;:&quot;vertical&quot;,&quot;curved&quot;:0,&quot;rounded&quot;:0};" vertex="1" parent="1">
          <mxGeometry x="599" y="140" width="100" height="370" as="geometry" />
        </mxCell>
        <mxCell id="kxStrU6a_xl0YsKGEl4B-2" value="UC7: Write Review&lt;br&gt;Sequence Diagram" style="text;html=1;strokeColor=none;fillColor=none;align=center;verticalAlign=middle;whiteSpace=wrap;rounded=0;fontStyle=1" vertex="1" parent="1">
          <mxGeometry x="379" y="60" width="230" height="30" as="geometry" />
        </mxCell>
        <mxCell id="kxStrU6a_xl0YsKGEl4B-3" style="edgeStyle=orthogonalEdgeStyle;rounded=0;orthogonalLoop=1;jettySize=auto;html=1;exitX=0.5;exitY=0.5;exitDx=0;exitDy=0;exitPerimeter=0;endArrow=none;endFill=0;dashed=1;" edge="1" parent="1" source="kxStrU6a_xl0YsKGEl4B-4">
          <mxGeometry relative="1" as="geometry">
            <mxPoint x="315" y="510" as="targetPoint" />
          </mxGeometry>
        </mxCell>
        <mxCell id="kxStrU6a_xl0YsKGEl4B-4" value="Service Requester" style="shape=umlActor;verticalLabelPosition=bottom;verticalAlign=top;html=1;outlineConnect=0;" vertex="1" parent="1">
          <mxGeometry x="300" y="110" width="30" height="60" as="geometry" />
        </mxCell>
        <mxCell id="kxStrU6a_xl0YsKGEl4B-5" value="selectServiceAppointment()" style="html=1;verticalAlign=bottom;endArrow=block;edgeStyle=elbowEdgeStyle;elbow=vertical;curved=0;rounded=0;" edge="1" parent="1" target="kxStrU6a_xl0YsKGEl4B-1">
          <mxGeometry x="-0.0023" relative="1" as="geometry">
            <mxPoint x="312" y="244" as="sourcePoint" />
            <Array as="points">
              <mxPoint x="477" y="244" />
            </Array>
            <mxPoint x="532" y="244" as="targetPoint" />
            <mxPoint as="offset" />
          </mxGeometry>
        </mxCell>
        <mxCell id="kxStrU6a_xl0YsKGEl4B-6" value="writeReview(rating, comment)" style="html=1;verticalAlign=bottom;endArrow=block;edgeStyle=elbowEdgeStyle;elbow=vertical;curved=0;rounded=0;" edge="1" parent="1">
          <mxGeometry x="0.0015" relative="1" as="geometry">
            <mxPoint x="313" y="319" as="sourcePoint" />
            <Array as="points">
              <mxPoint x="478" y="319" />
            </Array>
            <mxPoint x="648.5" y="319" as="targetPoint" />
            <mxPoint as="offset" />
          </mxGeometry>
        </mxCell>
        <mxCell id="kxStrU6a_xl0YsKGEl4B-7" value="rating, comment" style="html=1;verticalAlign=bottom;endArrow=open;dashed=1;endSize=8;edgeStyle=elbowEdgeStyle;elbow=vertical;curved=0;rounded=0;" edge="1" parent="1">
          <mxGeometry x="0.0015" relative="1" as="geometry">
            <mxPoint x="313" y="350" as="targetPoint" />
            <Array as="points">
              <mxPoint x="398" y="350" />
            </Array>
            <mxPoint x="648.5" y="350" as="sourcePoint" />
            <mxPoint as="offset" />
          </mxGeometry>
        </mxCell>
        <mxCell id="kxStrU6a_xl0YsKGEl4B-8" value="confirmSubmission(writeReview)" style="html=1;verticalAlign=bottom;endArrow=block;edgeStyle=elbowEdgeStyle;elbow=vertical;curved=0;rounded=0;" edge="1" parent="1">
          <mxGeometry x="-0.0013" relative="1" as="geometry">
            <mxPoint x="313" y="386" as="sourcePoint" />
            <Array as="points">
              <mxPoint x="478" y="386" />
            </Array>
            <mxPoint x="650" y="386" as="targetPoint" />
            <mxPoint as="offset" />
          </mxGeometry>
        </mxCell>
        <mxCell id="kxStrU6a_xl0YsKGEl4B-9" value="submissionConfirmation" style="html=1;verticalAlign=bottom;endArrow=open;dashed=1;endSize=8;edgeStyle=elbowEdgeStyle;elbow=vertical;curved=0;rounded=0;" edge="1" parent="1">
          <mxGeometry relative="1" as="geometry">
            <mxPoint x="315" y="426" as="targetPoint" />
            <Array as="points">
              <mxPoint x="400" y="426" />
            </Array>
            <mxPoint x="651" y="426" as="sourcePoint" />
          </mxGeometry>
        </mxCell>
        <mxCell id="kxStrU6a_xl0YsKGEl4B-10" value="serviceAppointment" style="html=1;verticalAlign=bottom;endArrow=open;dashed=1;endSize=8;edgeStyle=elbowEdgeStyle;elbow=vertical;curved=0;rounded=0;" edge="1" parent="1">
          <mxGeometry relative="1" as="geometry">
            <mxPoint x="316" y="282" as="targetPoint" />
            <Array as="points">
              <mxPoint x="401" y="282" />
            </Array>
            <mxPoint x="651.5" y="282" as="sourcePoint" />
          </mxGeometry>
        </mxCell>
      </root>
    </mxGraphModel>
  </diagram>
  <diagram id="Wu9dYIro4zJ0XjJgdVFs" name="UC8">
    <mxGraphModel dx="880" dy="470" grid="1" gridSize="10" guides="1" tooltips="1" connect="1" arrows="1" fold="1" page="1" pageScale="1" pageWidth="827" pageHeight="1169" math="0" shadow="0">
      <root>
        <mxCell id="0" />
        <mxCell id="1" parent="0" />
        <mxCell id="Lequx70QiKgURLjUqejT-1" value=":System" style="shape=umlLifeline;perimeter=lifelinePerimeter;whiteSpace=wrap;html=1;container=0;dropTarget=0;collapsible=0;recursiveResize=0;outlineConnect=0;portConstraint=eastwest;newEdgeStyle={&quot;edgeStyle&quot;:&quot;elbowEdgeStyle&quot;,&quot;elbow&quot;:&quot;vertical&quot;,&quot;curved&quot;:0,&quot;rounded&quot;:0};" vertex="1" parent="1">
          <mxGeometry x="356" y="80" width="100" height="320" as="geometry" />
        </mxCell>
        <mxCell id="Lequx70QiKgURLjUqejT-2" value="askDiscountProposal()" style="html=1;verticalAlign=bottom;endArrow=open;endSize=8;edgeStyle=elbowEdgeStyle;elbow=vertical;curved=0;rounded=0;" edge="1" parent="1">
          <mxGeometry relative="1" as="geometry">
            <mxPoint x="180" y="210" as="targetPoint" />
            <Array as="points">
              <mxPoint x="326" y="210" />
            </Array>
            <mxPoint x="401" y="210" as="sourcePoint" />
          </mxGeometry>
        </mxCell>
        <mxCell id="Lequx70QiKgURLjUqejT-3" value="UC8: Make Proposal&lt;br&gt;Sequence Diagram" style="text;html=1;strokeColor=none;fillColor=none;align=center;verticalAlign=middle;whiteSpace=wrap;rounded=0;fontStyle=1" vertex="1" parent="1">
          <mxGeometry x="291" y="10" width="230" height="30" as="geometry" />
        </mxCell>
        <mxCell id="Lequx70QiKgURLjUqejT-4" value="Service Requester" style="shape=umlActor;verticalLabelPosition=bottom;verticalAlign=top;html=1;outlineConnect=0;" vertex="1" parent="1">
          <mxGeometry x="167" y="60" width="30" height="60" as="geometry" />
        </mxCell>
        <mxCell id="Lequx70QiKgURLjUqejT-5" value="" style="endArrow=none;dashed=1;html=1;rounded=0;" edge="1" parent="1">
          <mxGeometry width="50" height="50" relative="1" as="geometry">
            <mxPoint x="183" y="400" as="sourcePoint" />
            <mxPoint x="182.51612903225805" y="120" as="targetPoint" />
          </mxGeometry>
        </mxCell>
        <mxCell id="Lequx70QiKgURLjUqejT-6" value="selectAvailableTime()" style="html=1;verticalAlign=bottom;endArrow=block;edgeStyle=elbowEdgeStyle;elbow=vertical;curved=0;rounded=0;" edge="1" parent="1">
          <mxGeometry relative="1" as="geometry">
            <mxPoint x="180" y="180" as="sourcePoint" />
            <Array as="points">
              <mxPoint x="345" y="180" />
            </Array>
            <mxPoint x="400" y="180" as="targetPoint" />
            <mxPoint as="offset" />
          </mxGeometry>
        </mxCell>
        <mxCell id="Lequx70QiKgURLjUqejT-7" value="enterProposedPrice()" style="html=1;verticalAlign=bottom;endArrow=block;edgeStyle=elbowEdgeStyle;elbow=vertical;curved=0;rounded=0;" edge="1" parent="1">
          <mxGeometry relative="1" as="geometry">
            <mxPoint x="180" y="240" as="sourcePoint" />
            <Array as="points">
              <mxPoint x="345" y="240" />
            </Array>
            <mxPoint x="405.5" y="240" as="targetPoint" />
            <mxPoint as="offset" />
          </mxGeometry>
        </mxCell>
        <mxCell id="Lequx70QiKgURLjUqejT-8" value="confirmationofPendingAppointment" style="html=1;verticalAlign=bottom;endArrow=open;dashed=1;endSize=8;edgeStyle=elbowEdgeStyle;elbow=horizontal;curved=0;rounded=0;" edge="1" parent="1">
          <mxGeometry relative="1" as="geometry">
            <mxPoint x="182.25" y="330" as="targetPoint" />
            <Array as="points">
              <mxPoint x="267.25" y="330" />
            </Array>
            <mxPoint x="407.75" y="330" as="sourcePoint" />
          </mxGeometry>
        </mxCell>
        <mxCell id="Lequx70QiKgURLjUqejT-9" value="askforConfirmation()" style="html=1;verticalAlign=bottom;endArrow=block;edgeStyle=elbowEdgeStyle;elbow=vertical;curved=0;rounded=0;" edge="1" parent="1">
          <mxGeometry relative="1" as="geometry">
            <mxPoint x="405.5" y="267" as="sourcePoint" />
            <Array as="points">
              <mxPoint x="345" y="267" />
            </Array>
            <mxPoint x="180" y="267" as="targetPoint" />
            <mxPoint as="offset" />
          </mxGeometry>
        </mxCell>
        <mxCell id="Lequx70QiKgURLjUqejT-10" value="confirm()" style="html=1;verticalAlign=bottom;endArrow=block;edgeStyle=elbowEdgeStyle;elbow=vertical;curved=0;rounded=0;" edge="1" parent="1">
          <mxGeometry relative="1" as="geometry">
            <mxPoint x="180" y="297" as="sourcePoint" />
            <Array as="points">
              <mxPoint x="345" y="297" />
            </Array>
            <mxPoint x="406" y="297" as="targetPoint" />
            <mxPoint as="offset" />
          </mxGeometry>
        </mxCell>
        <mxCell id="zIOFQ71s_VOdfNNVnsFc-1" value="Service Provider" style="shape=umlActor;verticalLabelPosition=bottom;verticalAlign=top;html=1;outlineConnect=0;" vertex="1" parent="1">
          <mxGeometry x="590" y="60" width="30" height="60" as="geometry" />
        </mxCell>
        <mxCell id="zIOFQ71s_VOdfNNVnsFc-2" value="" style="endArrow=none;dashed=1;html=1;rounded=0;" edge="1" parent="1">
          <mxGeometry width="50" height="50" relative="1" as="geometry">
            <mxPoint x="606" y="400" as="sourcePoint" />
            <mxPoint x="605.516129032258" y="120" as="targetPoint" />
          </mxGeometry>
        </mxCell>
        <mxCell id="KffK-8UeyCa9s52FNn-N-1" value="confirmationofPendingAppointment" style="html=1;verticalAlign=bottom;endArrow=open;dashed=1;endSize=8;edgeStyle=elbowEdgeStyle;elbow=horizontal;curved=0;rounded=0;" edge="1" parent="1" source="Lequx70QiKgURLjUqejT-1">
          <mxGeometry relative="1" as="geometry">
            <mxPoint x="610" y="330" as="targetPoint" />
            <Array as="points">
              <mxPoint x="440" y="330" />
            </Array>
            <mxPoint x="440" y="340" as="sourcePoint" />
          </mxGeometry>
        </mxCell>
      </root>
    </mxGraphModel>
  </diagram>
  <diagram id="So_IDXs-jE3AjoVQFFFM" name="UC9:Manage Service">
    <mxGraphModel grid="0" page="1" gridSize="10" guides="1" tooltips="1" connect="1" arrows="1" fold="1" pageScale="1" pageWidth="827" pageHeight="1169" math="0" shadow="0">
      <root>
        <mxCell id="0" />
        <mxCell id="1" parent="0" />
        <mxCell id="68wJDib4ne7u7eIJ_8wy-1" value=":Service" style="shape=umlLifeline;perimeter=lifelinePerimeter;whiteSpace=wrap;html=1;container=0;dropTarget=0;collapsible=0;recursiveResize=0;outlineConnect=0;portConstraint=eastwest;newEdgeStyle={&quot;edgeStyle&quot;:&quot;elbowEdgeStyle&quot;,&quot;elbow&quot;:&quot;vertical&quot;,&quot;curved&quot;:0,&quot;rounded&quot;:0};" vertex="1" parent="1">
          <mxGeometry x="356" y="91" width="100" height="280" as="geometry" />
        </mxCell>
        <mxCell id="68wJDib4ne7u7eIJ_8wy-3" value="UC9: Manage Service&lt;br&gt;Sequence Diagram" style="text;html=1;strokeColor=none;fillColor=none;align=center;verticalAlign=middle;whiteSpace=wrap;rounded=0;fontStyle=1" vertex="1" parent="1">
          <mxGeometry x="167" y="21" width="230" height="30" as="geometry" />
        </mxCell>
        <mxCell id="68wJDib4ne7u7eIJ_8wy-7" value="fillServiceDetails()" style="html=1;verticalAlign=bottom;endArrow=block;edgeStyle=elbowEdgeStyle;elbow=vertical;curved=0;rounded=0;" edge="1" parent="1">
          <mxGeometry relative="1" as="geometry">
            <mxPoint x="180" y="201" as="sourcePoint" />
            <Array as="points">
              <mxPoint x="345" y="201" />
            </Array>
            <mxPoint x="405.5" y="201" as="targetPoint" />
            <mxPoint as="offset" />
          </mxGeometry>
        </mxCell>
        <mxCell id="68wJDib4ne7u7eIJ_8wy-8" value="ServiceUUID" style="html=1;verticalAlign=bottom;endArrow=open;dashed=1;endSize=8;edgeStyle=elbowEdgeStyle;elbow=horizontal;curved=0;rounded=0;" edge="1" parent="1">
          <mxGeometry relative="1" as="geometry">
            <mxPoint x="182.25" y="264" as="targetPoint" />
            <Array as="points">
              <mxPoint x="267.25" y="264" />
            </Array>
            <mxPoint x="407.75" y="264" as="sourcePoint" />
          </mxGeometry>
        </mxCell>
        <mxCell id="68wJDib4ne7u7eIJ_8wy-10" value="createService()" style="html=1;verticalAlign=bottom;endArrow=block;edgeStyle=elbowEdgeStyle;elbow=vertical;curved=0;rounded=0;" edge="1" parent="1">
          <mxGeometry relative="1" as="geometry">
            <mxPoint x="180" y="231" as="sourcePoint" />
            <Array as="points">
              <mxPoint x="345" y="231" />
            </Array>
            <mxPoint x="406" y="231" as="targetPoint" />
            <mxPoint as="offset" />
          </mxGeometry>
        </mxCell>
        <mxCell id="Bg3CmyolCM4sFc1tG0AG-1" value=":User" style="shape=umlLifeline;perimeter=lifelinePerimeter;whiteSpace=wrap;html=1;container=0;dropTarget=0;collapsible=0;recursiveResize=0;outlineConnect=0;portConstraint=eastwest;newEdgeStyle={&quot;edgeStyle&quot;:&quot;elbowEdgeStyle&quot;,&quot;elbow&quot;:&quot;vertical&quot;,&quot;curved&quot;:0,&quot;rounded&quot;:0};" vertex="1" parent="1">
          <mxGeometry x="130" y="91" width="100" height="280" as="geometry" />
        </mxCell>
      </root>
    </mxGraphModel>
  </diagram>
  <diagram id="Hcl7ppEntkgCRqQJ7OTL" name="UC10">
    <mxGraphModel grid="1" page="1" gridSize="10" guides="1" tooltips="1" connect="1" arrows="1" fold="1" pageScale="1" pageWidth="827" pageHeight="1169" math="0" shadow="0">
      <root>
        <mxCell id="0" />
        <mxCell id="1" parent="0" />
        <mxCell id="7MJAW_G9ryWBNIFrOTyn-3" value="UC10: Receive Payment&lt;br&gt;Sequence Diagram" style="text;html=1;strokeColor=none;fillColor=none;align=center;verticalAlign=middle;whiteSpace=wrap;rounded=0;fontStyle=1" vertex="1" parent="1">
          <mxGeometry x="291" y="10" width="230" height="30" as="geometry" />
        </mxCell>
        <mxCell id="pa8_zUbFgTX9XdnXxisu-1" value=":System" style="shape=umlLifeline;perimeter=lifelinePerimeter;whiteSpace=wrap;html=1;container=0;dropTarget=0;collapsible=0;recursiveResize=0;outlineConnect=0;portConstraint=eastwest;newEdgeStyle={&quot;edgeStyle&quot;:&quot;elbowEdgeStyle&quot;,&quot;elbow&quot;:&quot;vertical&quot;,&quot;curved&quot;:0,&quot;rounded&quot;:0};" vertex="1" parent="1">
          <mxGeometry x="368.5" y="160" width="100" height="320" as="geometry" />
        </mxCell>
        <mxCell id="pa8_zUbFgTX9XdnXxisu-2" value="confirmFinancialInformation()" style="html=1;verticalAlign=bottom;endArrow=open;endSize=8;edgeStyle=elbowEdgeStyle;elbow=vertical;curved=0;rounded=0;dashed=1;" edge="1" parent="1">
          <mxGeometry relative="1" as="geometry">
            <mxPoint x="192.5" y="290" as="targetPoint" />
            <Array as="points">
              <mxPoint x="338.5" y="290" />
            </Array>
            <mxPoint x="413.5" y="290" as="sourcePoint" />
          </mxGeometry>
        </mxCell>
        <mxCell id="pa8_zUbFgTX9XdnXxisu-3" value="Service Provider" style="shape=umlActor;verticalLabelPosition=bottom;verticalAlign=top;html=1;outlineConnect=0;" vertex="1" parent="1">
          <mxGeometry x="179.5" y="140" width="33" height="60" as="geometry" />
        </mxCell>
        <mxCell id="pa8_zUbFgTX9XdnXxisu-4" value="" style="endArrow=none;dashed=1;html=1;rounded=0;" edge="1" parent="1">
          <mxGeometry width="50" height="50" relative="1" as="geometry">
            <mxPoint x="195.5" y="480" as="sourcePoint" />
            <mxPoint x="195.01612903225805" y="200" as="targetPoint" />
          </mxGeometry>
        </mxCell>
        <mxCell id="pa8_zUbFgTX9XdnXxisu-5" value="provideFinancialInformation()" style="html=1;verticalAlign=bottom;endArrow=block;edgeStyle=elbowEdgeStyle;elbow=vertical;curved=0;rounded=0;" edge="1" parent="1">
          <mxGeometry relative="1" as="geometry">
            <mxPoint x="192.5" y="260" as="sourcePoint" />
            <Array as="points">
              <mxPoint x="357.5" y="260" />
            </Array>
            <mxPoint x="412.5" y="260" as="targetPoint" />
            <mxPoint as="offset" />
          </mxGeometry>
        </mxCell>
        <mxCell id="pa8_zUbFgTX9XdnXxisu-6" value="transferAmount()" style="html=1;verticalAlign=bottom;endArrow=block;elbow=vertical;rounded=0;" edge="1" parent="1">
          <mxGeometry relative="1" as="geometry">
            <mxPoint x="418.5" y="378" as="sourcePoint" />
            <mxPoint x="198.5" y="380" as="targetPoint" />
            <mxPoint as="offset" />
          </mxGeometry>
        </mxCell>
        <mxCell id="pa8_zUbFgTX9XdnXxisu-7" value="confirmationofSuccessfulTransfer" style="html=1;verticalAlign=bottom;endArrow=open;dashed=1;endSize=8;edgeStyle=elbowEdgeStyle;elbow=horizontal;curved=0;rounded=0;" edge="1" parent="1">
          <mxGeometry relative="1" as="geometry">
            <mxPoint x="194.75" y="408" as="targetPoint" />
            <Array as="points">
              <mxPoint x="279.75" y="408" />
            </Array>
            <mxPoint x="420.25" y="408" as="sourcePoint" />
          </mxGeometry>
        </mxCell>
        <mxCell id="pa8_zUbFgTX9XdnXxisu-8" value="Service Provider" style="shape=umlActor;verticalLabelPosition=bottom;verticalAlign=top;html=1;outlineConnect=0;" vertex="1" parent="1">
          <mxGeometry x="602.5" y="140" width="30" height="60" as="geometry" />
        </mxCell>
        <mxCell id="pa8_zUbFgTX9XdnXxisu-9" value="" style="endArrow=none;dashed=1;html=1;rounded=0;" edge="1" parent="1">
          <mxGeometry width="50" height="50" relative="1" as="geometry">
            <mxPoint x="618.5" y="480" as="sourcePoint" />
            <mxPoint x="618.016129032258" y="200" as="targetPoint" />
          </mxGeometry>
        </mxCell>
        <mxCell id="pa8_zUbFgTX9XdnXxisu-13" value="updatePaymentHistory()" style="html=1;verticalAlign=bottom;endArrow=open;endSize=8;edgeStyle=elbowEdgeStyle;elbow=horizontal;curved=0;rounded=0;" edge="1" parent="1">
          <mxGeometry relative="1" as="geometry">
            <mxPoint x="193.5" y="440" as="targetPoint" />
            <Array as="points">
              <mxPoint x="278.5" y="440" />
            </Array>
            <mxPoint x="419" y="440" as="sourcePoint" />
          </mxGeometry>
        </mxCell>
        <mxCell id="pa8_zUbFgTX9XdnXxisu-14" value="updatePaymentHistory()" style="html=1;verticalAlign=bottom;endArrow=open;endSize=8;edgeStyle=elbowEdgeStyle;elbow=horizontal;curved=0;rounded=0;" edge="1" parent="1">
          <mxGeometry relative="1" as="geometry">
            <mxPoint x="621.25" y="440" as="targetPoint" />
            <Array as="points" />
            <mxPoint x="421.25" y="440" as="sourcePoint" />
          </mxGeometry>
        </mxCell>
      </root>
    </mxGraphModel>
  </diagram>
  <diagram id="6iVdMWJrndI8JibPEmqC" name="UC11">
    <mxGraphModel dx="880" dy="460" grid="1" gridSize="10" guides="1" tooltips="1" connect="1" arrows="1" fold="1" page="1" pageScale="1" pageWidth="827" pageHeight="1169" math="0" shadow="0">
      <root>
        <mxCell id="0" />
        <mxCell id="1" parent="0" />
        <mxCell id="2LBD5LZTaD-s-8Ko3Vfg-1" value=":System" style="shape=umlLifeline;perimeter=lifelinePerimeter;whiteSpace=wrap;html=1;container=0;dropTarget=0;collapsible=0;recursiveResize=0;outlineConnect=0;portConstraint=eastwest;newEdgeStyle={&quot;edgeStyle&quot;:&quot;elbowEdgeStyle&quot;,&quot;elbow&quot;:&quot;vertical&quot;,&quot;curved&quot;:0,&quot;rounded&quot;:0};" parent="1" vertex="1">
          <mxGeometry x="356" y="80" width="100" height="440" as="geometry" />
        </mxCell>
        <mxCell id="2LBD5LZTaD-s-8Ko3Vfg-2" value="incidentReports" style="html=1;verticalAlign=bottom;endArrow=open;endSize=8;edgeStyle=elbowEdgeStyle;elbow=vertical;curved=0;rounded=0;dashed=1;" parent="1" edge="1">
          <mxGeometry relative="1" as="geometry">
            <mxPoint x="180" y="210" as="targetPoint" />
            <Array as="points">
              <mxPoint x="326" y="210" />
            </Array>
            <mxPoint x="401" y="210" as="sourcePoint" />
          </mxGeometry>
        </mxCell>
        <mxCell id="2LBD5LZTaD-s-8Ko3Vfg-3" value="UC11: Troubleshoot System&lt;br&gt;Sequence Diagram" style="text;html=1;strokeColor=none;fillColor=none;align=center;verticalAlign=middle;whiteSpace=wrap;rounded=0;fontStyle=1" parent="1" vertex="1">
          <mxGeometry x="184" y="10" width="230" height="30" as="geometry" />
        </mxCell>
        <mxCell id="2LBD5LZTaD-s-8Ko3Vfg-4" value="System Admin" style="shape=umlActor;verticalLabelPosition=bottom;verticalAlign=top;html=1;outlineConnect=0;" parent="1" vertex="1">
          <mxGeometry x="167" y="60" width="30" height="60" as="geometry" />
        </mxCell>
        <mxCell id="2LBD5LZTaD-s-8Ko3Vfg-5" value="" style="endArrow=none;dashed=1;html=1;rounded=0;" parent="1" edge="1">
          <mxGeometry width="50" height="50" relative="1" as="geometry">
            <mxPoint x="183" y="529" as="sourcePoint" />
            <mxPoint x="182.51612903225805" y="120" as="targetPoint" />
          </mxGeometry>
        </mxCell>
        <mxCell id="2LBD5LZTaD-s-8Ko3Vfg-6" value="requestIncidentReports()" style="html=1;verticalAlign=bottom;endArrow=block;edgeStyle=elbowEdgeStyle;elbow=vertical;curved=0;rounded=0;" parent="1" edge="1">
          <mxGeometry relative="1" as="geometry">
            <mxPoint x="180" y="180" as="sourcePoint" />
            <Array as="points">
              <mxPoint x="345" y="180" />
            </Array>
            <mxPoint x="400" y="180" as="targetPoint" />
            <mxPoint as="offset" />
          </mxGeometry>
        </mxCell>
        <mxCell id="2LBD5LZTaD-s-8Ko3Vfg-14" value="confirmationofImplementation" style="html=1;verticalAlign=bottom;endArrow=none;endSize=8;edgeStyle=elbowEdgeStyle;elbow=horizontal;curved=0;rounded=0;dashed=1;startArrow=open;startFill=0;endFill=0;" parent="1" edge="1">
          <mxGeometry x="0.0387" relative="1" as="geometry">
            <mxPoint x="405.5" y="396" as="targetPoint" />
            <Array as="points">
              <mxPoint x="262" y="396" />
            </Array>
            <mxPoint x="186" y="396" as="sourcePoint" />
            <mxPoint as="offset" />
          </mxGeometry>
        </mxCell>
        <mxCell id="nAbwdxWSAWYx1g5-nqRl-1" value="systemLogs" style="html=1;verticalAlign=bottom;endArrow=open;endSize=8;edgeStyle=elbowEdgeStyle;elbow=vertical;curved=0;rounded=0;dashed=1;" parent="1" edge="1">
          <mxGeometry relative="1" as="geometry">
            <mxPoint x="184" y="270" as="targetPoint" />
            <Array as="points">
              <mxPoint x="330" y="270" />
            </Array>
            <mxPoint x="405" y="270" as="sourcePoint" />
          </mxGeometry>
        </mxCell>
        <mxCell id="nAbwdxWSAWYx1g5-nqRl-2" value="requestSystemLogs()" style="html=1;verticalAlign=bottom;endArrow=block;edgeStyle=elbowEdgeStyle;elbow=vertical;curved=0;rounded=0;" parent="1" edge="1">
          <mxGeometry relative="1" as="geometry">
            <mxPoint x="184" y="240" as="sourcePoint" />
            <Array as="points">
              <mxPoint x="349" y="240" />
            </Array>
            <mxPoint x="404" y="240" as="targetPoint" />
            <mxPoint as="offset" />
          </mxGeometry>
        </mxCell>
        <mxCell id="nAbwdxWSAWYx1g5-nqRl-3" value="verifyResolvedIssues()" style="html=1;verticalAlign=bottom;endArrow=open;endSize=8;edgeStyle=elbowEdgeStyle;elbow=horizontal;curved=0;rounded=0;" parent="1" edge="1">
          <mxGeometry x="0.0387" relative="1" as="geometry">
            <mxPoint x="403.5" y="430" as="targetPoint" />
            <Array as="points">
              <mxPoint x="260" y="430" />
            </Array>
            <mxPoint x="184" y="430" as="sourcePoint" />
            <mxPoint as="offset" />
          </mxGeometry>
        </mxCell>
        <mxCell id="DnPIll878SECDyzvvjhF-1" value="formulateCorrectiveActions()" style="html=1;verticalAlign=bottom;endArrow=block;edgeStyle=elbowEdgeStyle;elbow=vertical;curved=0;rounded=0;" edge="1" parent="1">
          <mxGeometry relative="1" as="geometry">
            <mxPoint x="184" y="299.5" as="sourcePoint" />
            <Array as="points">
              <mxPoint x="349" y="299.5" />
            </Array>
            <mxPoint x="404" y="299.5" as="targetPoint" />
            <mxPoint as="offset" />
          </mxGeometry>
        </mxCell>
        <mxCell id="DnPIll878SECDyzvvjhF-2" value="acknowledgementofReceipt" style="html=1;verticalAlign=bottom;endArrow=open;endSize=8;edgeStyle=elbowEdgeStyle;elbow=horizontal;curved=0;rounded=0;dashed=1;" edge="1" parent="1">
          <mxGeometry relative="1" as="geometry">
            <mxPoint x="184" y="330" as="targetPoint" />
            <Array as="points">
              <mxPoint x="330" y="330" />
            </Array>
            <mxPoint x="405" y="330" as="sourcePoint" />
          </mxGeometry>
        </mxCell>
        <mxCell id="DnPIll878SECDyzvvjhF-3" value="executeCorrectiveActions()" style="html=1;verticalAlign=bottom;endArrow=block;edgeStyle=elbowEdgeStyle;elbow=vertical;curved=0;rounded=0;" edge="1" parent="1">
          <mxGeometry relative="1" as="geometry">
            <mxPoint x="184" y="360" as="sourcePoint" />
            <Array as="points">
              <mxPoint x="349" y="360" />
            </Array>
            <mxPoint x="404" y="360" as="targetPoint" />
            <mxPoint as="offset" />
          </mxGeometry>
        </mxCell>
        <mxCell id="DnPIll878SECDyzvvjhF-4" value="confirmationofIssueResolution" style="html=1;verticalAlign=bottom;endArrow=none;endSize=8;edgeStyle=elbowEdgeStyle;elbow=horizontal;curved=0;rounded=0;dashed=1;startArrow=open;startFill=0;endFill=0;" edge="1" parent="1">
          <mxGeometry x="0.0387" relative="1" as="geometry">
            <mxPoint x="403.5" y="466" as="targetPoint" />
            <Array as="points">
              <mxPoint x="260" y="466" />
            </Array>
            <mxPoint x="184" y="466" as="sourcePoint" />
            <mxPoint as="offset" />
          </mxGeometry>
        </mxCell>
      </root>
    </mxGraphModel>
  </diagram>
  <diagram id="9JJnF7ISz5gEr4g_lUoM" name="UC12:Approve Appointment">
    <mxGraphModel grid="0" page="1" gridSize="10" guides="1" tooltips="1" connect="1" arrows="1" fold="1" pageScale="1" pageWidth="827" pageHeight="1169" math="0" shadow="0">
      <root>
        <mxCell id="0" />
        <mxCell id="1" parent="0" />
        <mxCell id="sXUh25nEaIiEsh7eTjRY-1" value=":Scheduling" style="shape=umlLifeline;perimeter=lifelinePerimeter;whiteSpace=wrap;html=1;container=0;dropTarget=0;collapsible=0;recursiveResize=0;outlineConnect=0;portConstraint=eastwest;newEdgeStyle={&quot;edgeStyle&quot;:&quot;elbowEdgeStyle&quot;,&quot;elbow&quot;:&quot;vertical&quot;,&quot;curved&quot;:0,&quot;rounded&quot;:0};" vertex="1" parent="1">
          <mxGeometry x="355" y="105" width="100" height="410" as="geometry" />
        </mxCell>
        <mxCell id="sXUh25nEaIiEsh7eTjRY-2" value="pendingScheduledAppointment" style="html=1;verticalAlign=bottom;endArrow=open;endSize=8;edgeStyle=elbowEdgeStyle;elbow=vertical;curved=0;rounded=0;dashed=1;" edge="1" parent="1">
          <mxGeometry relative="1" as="geometry">
            <mxPoint x="179" y="235" as="targetPoint" />
            <Array as="points">
              <mxPoint x="325" y="235" />
            </Array>
            <mxPoint x="400" y="235" as="sourcePoint" />
          </mxGeometry>
        </mxCell>
        <mxCell id="sXUh25nEaIiEsh7eTjRY-3" value="UC12: Approve Appointment&lt;br&gt;Sequence Diagram" style="text;html=1;strokeColor=none;fillColor=none;align=center;verticalAlign=middle;whiteSpace=wrap;rounded=0;fontStyle=1" vertex="1" parent="1">
          <mxGeometry x="290" y="35" width="230" height="30" as="geometry" />
        </mxCell>
        <mxCell id="sXUh25nEaIiEsh7eTjRY-5" value="" style="endArrow=none;dashed=1;html=1;rounded=0;" edge="1" parent="1">
          <mxGeometry width="50" height="50" relative="1" as="geometry">
            <mxPoint x="182" y="515" as="sourcePoint" />
            <mxPoint x="181.51612903225805" y="145" as="targetPoint" />
          </mxGeometry>
        </mxCell>
        <mxCell id="sXUh25nEaIiEsh7eTjRY-6" value="Login()" style="html=1;verticalAlign=bottom;endArrow=block;edgeStyle=elbowEdgeStyle;elbow=vertical;curved=0;rounded=0;" edge="1" parent="1">
          <mxGeometry relative="1" as="geometry">
            <mxPoint x="179" y="205" as="sourcePoint" />
            <Array as="points">
              <mxPoint x="344" y="205" />
            </Array>
            <mxPoint x="399" y="205" as="targetPoint" />
            <mxPoint as="offset" />
          </mxGeometry>
        </mxCell>
        <mxCell id="sXUh25nEaIiEsh7eTjRY-10" value="" style="endArrow=none;dashed=1;html=1;rounded=0;" edge="1" parent="1">
          <mxGeometry width="50" height="50" relative="1" as="geometry">
            <mxPoint x="605" y="515" as="sourcePoint" />
            <mxPoint x="604.516129032258" y="145" as="targetPoint" />
          </mxGeometry>
        </mxCell>
        <mxCell id="JFyKVZfRbhUh6i2ImdCl-1" value="requestApproval()" style="html=1;verticalAlign=bottom;endArrow=none;edgeStyle=elbowEdgeStyle;elbow=vertical;curved=0;rounded=0;startArrow=classic;startFill=1;endFill=0;" edge="1" parent="1">
          <mxGeometry relative="1" as="geometry">
            <mxPoint x="184" y="267" as="sourcePoint" />
            <Array as="points">
              <mxPoint x="349" y="267" />
            </Array>
            <mxPoint x="404" y="267" as="targetPoint" />
            <mxPoint as="offset" />
          </mxGeometry>
        </mxCell>
        <mxCell id="JFyKVZfRbhUh6i2ImdCl-2" value="approve()" style="html=1;verticalAlign=bottom;endArrow=block;edgeStyle=elbowEdgeStyle;elbow=vertical;curved=0;rounded=0;" edge="1" parent="1">
          <mxGeometry relative="1" as="geometry">
            <mxPoint x="182" y="299" as="sourcePoint" />
            <Array as="points">
              <mxPoint x="347" y="299" />
            </Array>
            <mxPoint x="402" y="299" as="targetPoint" />
            <mxPoint as="offset" />
          </mxGeometry>
        </mxCell>
        <mxCell id="PfO5n4RtA3xlp2NyJWf9-1" value="askforConfirmation()" style="html=1;verticalAlign=bottom;endArrow=none;edgeStyle=elbowEdgeStyle;elbow=vertical;curved=0;rounded=0;startArrow=classic;startFill=1;endFill=0;" edge="1" parent="1">
          <mxGeometry relative="1" as="geometry">
            <mxPoint x="183" y="335" as="sourcePoint" />
            <Array as="points">
              <mxPoint x="348" y="335" />
            </Array>
            <mxPoint x="403" y="335" as="targetPoint" />
            <mxPoint as="offset" />
          </mxGeometry>
        </mxCell>
        <mxCell id="PfO5n4RtA3xlp2NyJWf9-3" value="confirmSelection()" style="html=1;verticalAlign=bottom;endArrow=block;edgeStyle=elbowEdgeStyle;elbow=vertical;curved=0;rounded=0;" edge="1" parent="1">
          <mxGeometry relative="1" as="geometry">
            <mxPoint x="184" y="371" as="sourcePoint" />
            <Array as="points">
              <mxPoint x="349" y="371" />
            </Array>
            <mxPoint x="404" y="371" as="targetPoint" />
            <mxPoint as="offset" />
          </mxGeometry>
        </mxCell>
        <mxCell id="PfO5n4RtA3xlp2NyJWf9-4" value="changeAppointmentStatus()" style="html=1;verticalAlign=bottom;endArrow=none;edgeStyle=elbowEdgeStyle;elbow=vertical;curved=0;rounded=0;startArrow=classic;startFill=1;endFill=0;" edge="1" parent="1">
          <mxGeometry relative="1" as="geometry">
            <mxPoint x="183" y="408" as="sourcePoint" />
            <Array as="points">
              <mxPoint x="348" y="408" />
            </Array>
            <mxPoint x="403" y="408" as="targetPoint" />
            <mxPoint as="offset" />
          </mxGeometry>
        </mxCell>
        <mxCell id="PfO5n4RtA3xlp2NyJWf9-5" value="confirmation" style="html=1;verticalAlign=bottom;endArrow=open;endSize=8;edgeStyle=elbowEdgeStyle;elbow=vertical;curved=0;rounded=0;dashed=1;" edge="1" parent="1">
          <mxGeometry relative="1" as="geometry">
            <mxPoint x="182" y="445" as="targetPoint" />
            <Array as="points">
              <mxPoint x="328" y="445" />
            </Array>
            <mxPoint x="403" y="445" as="sourcePoint" />
          </mxGeometry>
        </mxCell>
        <mxCell id="PfO5n4RtA3xlp2NyJWf9-6" value="confirmation" style="html=1;verticalAlign=bottom;endArrow=none;endSize=8;edgeStyle=elbowEdgeStyle;elbow=vertical;curved=0;rounded=0;dashed=1;startArrow=open;startFill=0;endFill=0;" edge="1" parent="1">
          <mxGeometry relative="1" as="geometry">
            <mxPoint x="406" y="455" as="targetPoint" />
            <Array as="points">
              <mxPoint x="552" y="455" />
            </Array>
            <mxPoint x="607" y="455" as="sourcePoint" />
          </mxGeometry>
        </mxCell>
        <mxCell id="PfO5n4RtA3xlp2NyJWf9-7" value="changeAppointmentStatus()" style="html=1;verticalAlign=bottom;endArrow=classic;edgeStyle=elbowEdgeStyle;elbow=vertical;curved=0;rounded=0;startArrow=none;startFill=0;endFill=1;" edge="1" parent="1" source="sXUh25nEaIiEsh7eTjRY-1">
          <mxGeometry relative="1" as="geometry">
            <mxPoint x="395" y="420" as="sourcePoint" />
            <Array as="points">
              <mxPoint x="560" y="420" />
            </Array>
            <mxPoint x="605" y="420" as="targetPoint" />
            <mxPoint as="offset" />
          </mxGeometry>
        </mxCell>
        <mxCell id="GKXRdICHZ0oHly5tO_Zz-1" value=":Service Provider" style="rounded=0;whiteSpace=wrap;html=1;" vertex="1" parent="1">
          <mxGeometry x="140" y="105" width="90" height="45" as="geometry" />
        </mxCell>
        <mxCell id="GKXRdICHZ0oHly5tO_Zz-2" value=":Service Requester" style="rounded=0;whiteSpace=wrap;html=1;" vertex="1" parent="1">
          <mxGeometry x="560" y="105" width="90" height="45" as="geometry" />
        </mxCell>
      </root>
    </mxGraphModel>
  </diagram>
</mxfile>
